<svg xmlns="http://www.w3.org/2000/svg" version="1.1" xmlns:xlink="http://www.w3.org/1999/xlink" xmlns:svgjs="http://svgjs.dev/svgjs" width="100%" height="100%" viewBox="0 0 1000 600"><rect width="1000" height="600" x="0" y="0" fill="#232f3e"/><g><rect width="333.3333333333333" height="333.3333333333333" rx="13.333333333333334" ry="13.333333333333334" y="195.44709500320008" fill="#161b21" transform="matrix(0.7216055441480127,0,0,0.7216055441480127,0,38.69673248431016)" x="173.22488403320312"/><path d="M264.3082113382568 437.1137483110988L264.3082113382568 437.1137483110988Q246.64154467159014 437.1137483110988 237.3082113382568 426.44708164443216Q227.97487800492348 415.7804149777655 227.97487800492348 395.5899387872893L227.97487800492348 395.5899387872893L227.97487800492348 325.6137483110988Q227.97487800492348 306.7089864063369 237.21297324301872 296.92327212062264Q246.47487800492348 287.1137483110988 264.3082113382568 287.1137483110988L264.3082113382568 287.1137483110988Q282.14154467159017 287.1137483110988 291.37963990968535 296.92327212062264Q300.64154467159017 306.7089864063369 300.64154467159017 325.6137483110988L300.64154467159017 325.6137483110988L300.64154467159017 395.5899387872893Q300.64154467159017 415.7804149777655 291.3082113382568 426.44708164443216Q281.9748780049235 437.1137483110988 264.3082113382568 437.1137483110988ZM264.54630657635204 409.9947006920512L264.54630657635204 409.9947006920512Q271.26059229063776 409.9947006920512 271.26059229063776 397.0185102158607L271.26059229063776 397.0185102158607L271.26059229063776 325.11374831109885Q271.26059229063776 314.23279593014644 264.7129732430187 314.23279593014644L264.7129732430187 314.23279593014644Q257.35583038587583 314.23279593014644 257.35583038587583 325.3756530730036L257.35583038587583 325.3756530730036L257.35583038587583 397.1851768825274Q257.35583038587583 404.06612926347975 259.0224970525425 407.0185102158607Q260.7129732430187 409.9947006920512 264.54630657635204 409.9947006920512ZM354.61773514778065 435.7804149777655L325.1653541953997 435.7804149777655L325.1653541953997 316.75660545395596L307.6653541953997 316.75660545395596L307.6653541953997 288.44708164443216L372.11773514778065 288.44708164443216L372.11773514778065 316.75660545395596L354.61773514778065 316.75660545395596L354.61773514778065 435.7804149777655ZM415.4748780049235 437.1137483110988L415.4748780049235 437.1137483110988Q397.8082113382568 437.1137483110988 388.4748780049235 426.44708164443216Q379.14154467159017 415.7804149777655 379.14154467159017 395.5899387872893L379.14154467159017 395.5899387872893L379.14154467159017 325.6137483110988Q379.14154467159017 306.7089864063369 388.40344943349487 296.92327212062264Q397.64154467159017 287.1137483110988 415.4748780049235 287.1137483110988L415.4748780049235 287.1137483110988Q433.3082113382568 287.1137483110988 442.5463065763521 296.92327212062264Q451.8082113382568 306.7089864063369 451.8082113382568 325.6137483110988L451.8082113382568 325.6137483110988L451.8082113382568 395.5899387872893Q451.8082113382568 415.7804149777655 442.47487800492354 426.44708164443216Q433.14154467159017 437.1137483110988 415.4748780049235 437.1137483110988ZM415.73678276682824 409.9947006920512L415.73678276682824 409.9947006920512Q422.42725895730445 409.9947006920512 422.42725895730445 397.0185102158607L422.42725895730445 397.0185102158607L422.42725895730445 325.11374831109885Q422.42725895730445 314.23279593014644 415.903449433495 314.23279593014644L415.903449433495 314.23279593014644Q408.5224970525426 314.23279593014644 408.5224970525426 325.3756530730036L408.5224970525426 325.3756530730036L408.5224970525426 397.1851768825274Q408.5224970525426 404.06612926347975 410.2129732430187 407.0185102158607Q411.87963990968535 409.9947006920512 415.73678276682824 409.9947006920512Z " fill="#ff661b" transform="matrix(0.7216055441480127,0,0,0.7216055441480127,0,38.69673248431016)"/><path d="M625.1572721851985 420.77676089339207L603.0290543525248 420.77676089339207L603.0290543525248 331.42380374837114L589.8915421497661 331.42380374837114L589.8915421497661 310.17142006254807L638.2769102216948 310.17142006254807L638.2769102216948 331.42380374837114L625.1572721851985 331.42380374837114L625.1572721851985 420.77676089339207ZM667.1973112340261 420.77676089339207L644.068140090666 420.77676089339207L644.068140090666 310.17142006254807L667.1973112340261 310.17142006254807L667.1973112340261 335.8744711476731Q669.0026020265141 330.60159210030736 672.7740511078501 328.06346049106696Q676.5455001891862 325.5074547155642 681.5860150751427 325.5074547155642L681.5860150751427 325.5074547155642Q691.3810581868593 325.5074547155642 695.8495997524235 331.6740420760428Q700.3002671517254 337.82275527025905 700.3002671517254 348.1897717023679L700.3002671517254 348.1897717023679L700.3002671517254 420.77676089339207L677.5643276661349 420.77676089339207L677.5643276661349 349.63757916961066Q677.5643276661349 346.5632225725025 676.2773876952524 344.61493844991656Q674.9725735581078 342.6666543273306 672.2199519537203 342.6666543273306L672.2199519537203 342.6666543273306Q669.8963103396268 342.6666543273306 668.5378737036954 344.6864351149656Q667.1973112340261 346.6883417363383 667.1973112340261 349.4588375069881L667.1973112340261 349.4588375069881L667.1973112340261 420.77676089339207ZM735.4945005221086 421.7777142040784L735.4945005221086 421.7777142040784Q725.4492190827204 421.7777142040784 719.4792475511267 418.00626512274226Q713.509276019533 414.23481604140613 710.9175219115057 407.13877203529023Q708.3436419697409 400.0427280291743 708.3436419697409 390.0510690885729L708.3436419697409 390.0510690885729L708.3436419697409 352.1578366125889Q708.3436419697409 339.02032440983027 715.8865401324131 332.2638895626972Q723.4294382950854 325.5074547155642 736.6205729966309 325.5074547155642L736.6205729966309 325.5074547155642Q763.7714315489986 325.5074547155642 763.7714315489986 352.1578366125889L763.7714315489986 352.1578366125889L763.7714315489986 359.00364229103315Q763.7714315489986 371.44406200956377 763.5211932213272 375.7159877462431L763.5211932213272 375.7159877462431L730.8472172939219 375.7159877462431L730.8472172939219 393.94763733374486Q730.8472172939219 396.4500206104608 731.1510781203804 398.8809072221277Q731.472813113101 401.29391966753235 732.5810114213609 402.8668462986109Q733.6713355633585 404.4397729296895 736.1200963412878 404.4397729296895L736.1200963412878 404.4397729296895Q739.6413070949523 404.4397729296895 740.5171412418028 401.3832904988436Q741.3929753886534 398.34468223425995 741.3929753886534 393.4471606784017L741.3929753886534 393.4471606784017L741.3929753886534 384.38495838343755L763.7714315489986 384.38495838343755L763.7714315489986 389.7293340958523Q763.7714315489986 400.29296635684597 761.1618032747092 407.42475869548633Q758.5521750004198 414.55655103412676 752.3677134736788 418.16713261910263Q746.1832519469381 421.7777142040784 735.4945005221086 421.7777142040784ZM730.7220981300861 351.83610161986826L730.7220981300861 364.5446338323327L741.3929753886534 364.5446338323327L741.3929753886534 351.83610161986826Q741.3929753886534 346.75983840138736 740.1417837502954 344.5255676186053Q738.8905921119374 342.29129683582323 736.3703346689592 342.29129683582323L736.3703346689592 342.29129683582323Q733.6713355633585 342.29129683582323 732.1877797635912 344.436196787294Q730.7220981300861 346.5632225725025 730.7220981300861 351.83610161986826L730.7220981300861 351.83610161986826ZM770.9925947189504 305.64925599819713L756.3536525501622 305.64925599819713L766.6670464834842 287.113745584237L785.9532718804592 287.113745584237L770.9925947189504 305.64925599819713ZM730.9723364577578 320.80654898859075L708.6653769624616 320.80654898859075L723.8047957865929 301.75268775302516L749.4363502066687 301.75268775302516L764.5936431970624 320.80654898859075L742.2866837017662 320.80654898859075L736.6205729966309 308.54487093268267L730.9723364577578 320.80654898859075ZM827.4928342739436 437.1137488570946L827.4928342739436 437.1137488570946Q820.9508894219575 437.1137488570946 816.2678578612463 436.45240470539113Q811.584826300535 435.7910605536876 807.884873884248 434.0930147587732Q804.184921467961 432.39496896385884 800.4670948854116 429.3206123667507L800.4670948854116 429.3206123667507L808.0814897131327 416.3082193278279Q816.303606193771 421.2236150499484 824.5435968406712 421.2236150499484L824.5435968406712 421.2236150499484Q829.9415950518726 421.2236150499484 832.5869716586867 417.7560267950707Q835.2144740992383 414.3063127064552 835.2144740992383 408.78319533141786L835.2144740992383 408.78319533141786L835.2144740992383 399.54225137383116Q832.5154749936376 409.21217532171204 820.8257702581218 409.21217532171204L820.8257702581218 409.21217532171204Q814.1050837435132 409.21217532171204 809.9582771706698 406.01269956076806Q805.8114705978262 402.81322379982413 803.9346831402893 397.3437289235736Q802.04002151649 391.87423404732306 802.04002151649 385.1535475327146L802.04002151649 385.1535475327146L802.04002151649 351.2820024657383Q802.04002151649 343.667607638017 803.6665706463555 337.85850360278357Q805.310993942483 332.04939956755015 809.3863038502775 328.7784271415572Q813.4794879243343 325.5074547155642 820.8257702581218 325.5074547155642L820.8257702581218 325.5074547155642Q827.045980117387 325.5074547155642 830.5314425385272 328.6533079777214Q834.0347791259294 331.7991612398786 835.2144740992383 337.1435369522933L835.2144740992383 337.1435369522933L835.2144740992383 326.5262821925129L858.1649035799758 326.5262821925129L858.1649035799758 407.33538786417506Q858.1649035799758 423.35064083515704 850.7649987474017 430.2321948461258Q843.3829680810898 437.1137488570946 827.4928342739436 437.1137488570946ZM829.9415950518726 392.2495915388305L829.9415950518726 392.2495915388305Q835.2144740992383 392.2495915388305 835.2144740992383 382.70478675478546L835.2144740992383 382.70478675478546L835.2144740992383 350.65640664655933Q835.2144740992383 348.0646525385321 833.7487924657332 345.36565343293137Q832.2652366659661 342.6666543273306 829.6913567242011 342.6666543273306L829.6913567242011 342.6666543273306Q826.4203842982081 342.6666543273306 825.5981726501443 345.0796667727352Q824.7938351683429 347.51055338440216 824.7938351683429 350.65640664655933L824.7938351683429 350.65640664655933L824.7938351683429 382.70478675478546Q824.7938351683429 386.0830041783519 825.6339209826688 389.17523494172235Q826.491880963257 392.2495915388305 829.9415950518726 392.2495915388305ZM889.3195753750892 320.7350523235417L866.8338742171704 320.7350523235417L866.8338742171704 302.00292608069674L889.3195753750892 302.00292608069674L889.3195753750892 320.7350523235417ZM889.3195753750892 420.77676089339207L866.8338742171704 420.77676089339207L866.8338742171704 326.5262821925129L889.3195753750892 326.5262821925129L889.3195753750892 420.77676089339207ZM925.6398812199945 421.7777142040784L925.6398812199945 421.7777142040784Q897.4880693569405 421.7777142040784 897.4880693569405 392.5534523652888L897.4880693569405 392.5534523652888L897.4880693569405 354.73171655435385Q897.4880693569405 341.41546268897264 904.9773450208259 333.46145870226843Q912.4487465184493 325.5074547155642 925.6398812199945 325.5074547155642L925.6398812199945 325.5074547155642L930.5552769421151 325.5074547155642Q937.7764401120669 325.5074547155642 937.7764401120669 317.6606957264336L937.7764401120669 317.6606957264336L937.7764401120669 316.2128882591908L955.2395005502915 316.2128882591908L955.2395005502915 317.1602190710904Q955.2395005502915 323.7557864218631 953.2018455963944 328.1170829898537Q951.164190642497 332.49625372410657 947.6966023876194 334.94501450203575L947.6966023876194 334.94501450203575Q953.8631897480977 342.61303182854385 953.8631897480977 354.73171655435385L953.8631897480977 354.73171655435385L953.8631897480977 392.5534523652888Q953.8631897480977 421.7777142040784 925.6398812199945 421.7777142040784ZM925.6398812199945 404.4397729296895L925.6398812199945 404.4397729296895Q928.4818736556933 404.4397729296895 929.6973169615269 402.40211797579224Q930.9306344336226 400.3465888556327 930.9306344336226 397.21860975973783L930.9306344336226 397.21860975973783L930.9306344336226 351.1568833019025Q930.9306344336226 342.9168926550022 925.6398812199945 342.9168926550022L925.6398812199945 342.9168926550022Q920.3670021726289 342.9168926550022 920.3670021726289 351.1568833019025L920.3670021726289 351.1568833019025L920.3670021726289 397.21860975973783Q920.3670021726289 400.3465888556327 921.6003196447246 402.40211797579224Q922.8157629505581 404.4397729296895 925.6398812199945 404.4397729296895ZM940.6005583815033 311.86946585746244L910.7507007235349 317.78581489026936L910.7507007235349 303.77246854066016L940.6005583815033 290.06298301750934L940.6005583815033 311.86946585746244ZM984.5173848878678 320.7350523235417L962.031683729949 320.7350523235417L962.031683729949 302.00292608069674L984.5173848878678 302.00292608069674L984.5173848878678 320.7350523235417ZM984.5173848878678 420.77676089339207L962.031683729949 420.77676089339207L962.031683729949 326.5262821925129L984.5173848878678 326.5262821925129L984.5173848878678 420.77676089339207ZM1051.0092833834626 421.7777142040784L1051.0092833834626 421.7777142040784Q1022.8574715204084 421.7777142040784 1022.8574715204084 392.5534523652888L1022.8574715204084 392.5534523652888L1022.8574715204084 354.73171655435385Q1022.8574715204084 341.41546268897264 1030.3288730180316 333.46145870226843Q1037.8181486819171 325.5074547155642 1051.0092833834626 325.5074547155642L1051.0092833834626 325.5074547155642Q1064.271914750057 325.5074547155642 1071.7433162476802 333.46145870226843Q1079.2147177453035 341.41546268897264 1079.2147177453035 354.73171655435385L1079.2147177453035 354.73171655435385L1079.2147177453035 392.5534523652888Q1079.2147177453035 421.7777142040784 1051.0092833834626 421.7777142040784ZM1051.0092833834626 404.4397729296895L1051.0092833834626 404.4397729296895Q1053.833401652899 404.4397729296895 1055.0667191249947 402.40211797579224Q1056.2821624308283 400.3465888556327 1056.2821624308283 397.21860975973783L1056.2821624308283 397.21860975973783L1056.2821624308283 351.1568833019025Q1056.2821624308283 342.9168926550022 1051.0092833834626 342.9168926550022L1051.0092833834626 342.9168926550022Q1045.736404336097 342.9168926550022 1045.736404336097 351.1568833019025L1045.736404336097 351.1568833019025L1045.736404336097 397.21860975973783Q1045.736404336097 400.3465888556327 1046.9518476419303 402.40211797579224Q1048.1851651140262 404.4397729296895 1051.0092833834626 404.4397729296895ZM1045.611285172261 319.78772151164213L1023.0540873492932 319.78772151164213L1038.1935061734246 294.4779020842867L1063.8250605935007 294.4779020842867L1078.964479417632 319.78772151164213L1056.407281594664 319.78772151164213L1051.0092833834626 301.877806916861L1045.611285172261 319.78772151164213ZM1137.0376456037038 421.7777142040784L1137.0376456037038 421.7777142040784Q1127.9218208099528 421.7777142040784 1124.7580933815334 417.916894291431Q1121.5764917868516 414.05607437878353 1121.5764917868516 406.06632205955486L1121.5764917868516 406.06632205955486L1121.5764917868516 347.3139375555173L1115.2311627637507 347.3139375555173L1115.2311627637507 330.15473794375094L1121.5764917868516 330.15473794375094L1121.5764917868516 310.17142006254807L1143.4365971255916 310.17142006254807L1143.4365971255916 330.15473794375094L1149.7998003149548 330.15473794375094L1149.7998003149548 347.3139375555173L1143.4365971255916 347.3139375555173L1143.4365971255916 400.79344301218913Q1143.4365971255916 403.1170846262825 1144.2051862748685 404.0644154381821Q1144.9559012578834 405.0117462500817 1147.082927043092 405.0117462500817L1147.082927043092 405.0117462500817Q1148.6022311753836 405.0117462500817 1149.7998003149548 404.7615079224101L1149.7998003149548 404.7615079224101L1149.7998003149548 420.079668409164Q1149.0312111656779 420.3299067368356 1145.0810204217191 421.0627475535881Q1141.112955511498 421.7777142040784 1137.0376456037038 421.7777142040784ZM1184.3505636998968 421.7777142040784L1184.3505636998968 421.7777142040784Q1156.1987518368428 421.7777142040784 1156.1987518368428 392.5534523652888L1156.1987518368428 392.5534523652888L1156.1987518368428 354.73171655435385Q1156.1987518368428 341.41546268897264 1163.670153334466 333.46145870226843Q1171.1594289983516 325.5074547155642 1184.3505636998968 325.5074547155642L1184.3505636998968 325.5074547155642Q1197.6131950664915 325.5074547155642 1205.0845965641147 333.46145870226843Q1212.573872228 341.41546268897264 1212.573872228 354.73171655435385L1212.573872228 354.73171655435385L1212.573872228 392.5534523652888Q1212.573872228 421.7777142040784 1184.3505636998968 421.7777142040784ZM1184.3505636998968 404.4397729296895L1184.3505636998968 404.4397729296895Q1187.1746819693335 404.4397729296895 1188.4079994414292 402.40211797579224Q1189.6234427472627 400.3465888556327 1189.6234427472627 397.21860975973783L1189.6234427472627 397.21860975973783L1189.6234427472627 351.1568833019025Q1189.6234427472627 342.9168926550022 1184.3505636998968 342.9168926550022L1184.3505636998968 342.9168926550022Q1179.0776846525312 342.9168926550022 1179.0776846525312 351.1568833019025L1179.0776846525312 351.1568833019025L1179.0776846525312 397.21860975973783Q1179.0776846525312 400.3465888556327 1180.2931279583647 402.40211797579224Q1181.5264454304604 404.4397729296895 1184.3505636998968 404.4397729296895ZM1178.9525654886954 319.78772151164213L1156.3953676657277 319.78772151164213L1171.534786489859 294.4779020842867L1197.166340909935 294.4779020842867L1212.3236339003286 319.78772151164213L1189.7485619110985 319.78772151164213L1184.3505636998968 301.877806916861L1178.9525654886954 319.78772151164213Z " fill="#ffffff" transform="matrix(0.7216055441480127,0,0,0.7216055441480127,0,38.69673248431016)"/></g></svg>